<?xml version="1.0" standalone="no"?><!DOCTYPE svg PUBLIC "-//W3C//DTD SVG 1.1//EN" "http://www.w3.org/Graphics/SVG/1.1/DTD/svg11.dtd"><svg t="1670635501702" class="icon" viewBox="0 0 1024 1024" version="1.1" xmlns="http://www.w3.org/2000/svg" p-id="1513" xmlns:xlink="http://www.w3.org/1999/xlink" width="200" height="200"><path d="M576 192v128h64V160a32 32 0 0 0-32-32h-512a32 32 0 0 0-32 32v704a32 32 0 0 0 32 32h512a32 32 0 0 0 32-32V704H576v128H128V192h448z" fill="#000000" fill-opacity=".9" p-id="1514"></path><path d="M718.848 336.256L862.528 480H384v64h478.528l-143.68 143.744 45.248 45.248 198.336-198.4a32 32 0 0 0 0-45.248l-198.4-198.336-45.184 45.248z" fill="#000000" fill-opacity=".9" p-id="1515"></path></svg>